<?xml version="1.0" encoding="iso-8859-1"?>
<!-- Generator: Adobe Illustrator 18.0.0, SVG Export Plug-In . SVG Version: 6.00 Build 0)  -->
<!DOCTYPE svg PUBLIC "-//W3C//DTD SVG 1.1//EN" "http://www.w3.org/Graphics/SVG/1.1/DTD/svg11.dtd">
<svg xmlns="http://www.w3.org/2000/svg" xmlns:xlink="http://www.w3.org/1999/xlink" version="1.1" id="Capa_1" x="0px" y="0px" viewBox="0 0 498.5 498.5" style="enable-background:new 0 0 498.5 498.5;" xml:space="preserve" width="512px" height="512px">
<g>
	<path d="M181.856,17.985c-19.325-0.84-30.502,8.58-33.923,12.024c-2.991,0.678-9.642,2.705-16.295,8.248   c-7.913,6.591-17.451,19.646-17.958,44.408c-0.18,8.77-0.583,29.178,21.927,41.248c9.66,14.115,25.887,23.399,44.245,23.399   c18.381,0,34.626-9.306,44.281-23.45c22.143-11.938,21.881-32.249,21.762-40.985C245.403,46.846,218.47,19.554,181.856,17.985z    M179.852,138.813c-24.86,0-45.085-20.225-45.085-45.085V81.171c11.656-4.42,18.84-16.708,22.37-24.55   c9.609,10.113,33.23,30.551,67.799,31.61v5.497C224.937,118.589,204.712,138.813,179.852,138.813z M231.992,106.045   c0.935-3.958,1.445-8.077,1.445-12.316v-5.833c1.664-0.64,2.817-2.273,2.727-4.151c-0.112-2.345-2.105-4.133-4.447-4.043   c-44.761,2.146-72.33-33.371-72.6-33.727l-0.009,0.007c-0.521-0.688-1.246-1.229-2.133-1.502c-2.243-0.691-4.619,0.573-5.309,2.813   c-0.078,0.254-7.998,25.369-24.218,26.959c-2.336,0.229-4.044,2.308-3.815,4.644c0.16,1.628,1.219,2.946,2.636,3.521v11.312   c0,4.362,0.537,8.599,1.524,12.661c-4.994-7.102-5.781-15.37-5.614-23.55c0.826-40.374,27.356-44.551,28.461-44.705   c1.059-0.136,2.044-0.686,2.731-1.502c0.376-0.447,9.437-10.951,28.121-10.155c31.964,1.369,55.475,25.138,55.904,56.518   C237.475,88.74,237.591,97.833,231.992,106.045z" fill="#006DF0"/>
	<path d="M181.334,105.042h-5.393c-10.273,0-18.631,8.357-18.631,18.631v5.572c0,2.348,1.903,4.25,4.25,4.25   c2.347,0,4.25-1.902,4.25-4.25v-5.572c0-5.586,4.545-10.131,10.131-10.131h5.393c5.587,0,10.131,4.545,10.131,10.131v5.572   c0,2.348,1.903,4.25,4.25,4.25c2.347,0,4.25-1.902,4.25-4.25v-5.572C199.966,113.399,191.608,105.042,181.334,105.042z" fill="#006DF0"/>
	<path d="M183.647,121.508h-10.018c-2.347,0-4.25,1.902-4.25,4.25c0,2.348,1.903,4.25,4.25,4.25h10.018   c2.347,0,4.25-1.902,4.25-4.25C187.897,123.41,185.995,121.508,183.647,121.508z" fill="#006DF0"/>
	<path d="M117.233,157.7c-20.618,21.064-83.401,83.341-83.401,83.341c-0.281,0.281-0.527,0.584-0.791,0.876v-3.492   c0-5.082-3.203-9.418-7.691-11.129c0.277-6.609,1.504-10.391,2.795-14.362c1.607-4.946,3.269-10.061,3.269-19.866   c0-9.923-2.021-15.167-3.805-19.793c-1.664-4.316-3.235-8.394-3.235-16.733c0-8.34,1.572-12.416,3.236-16.732   c1.783-4.625,3.804-9.867,3.804-19.788s-2.021-15.163-3.804-19.788c-1.664-4.316-3.236-8.394-3.236-16.733   c0-8.388,1.587-12.786,3.267-17.442c1.855-5.139,3.772-10.453,3.772-20.327c0-9.892-1.923-15.098-3.783-20.132   c-1.365-3.695-2.668-7.226-3.104-12.938h315.466v3.426c0,3.518-1.082,5.021-2.719,7.294c-1.925,2.674-4.321,6.001-4.321,12.261   c0,6.26,2.396,9.587,4.321,12.261c1.637,2.273,2.719,3.775,2.719,7.293c0,3.518-1.082,5.02-2.719,7.293   c-1.925,2.674-4.321,6.001-4.321,12.261c0,6.26,2.396,9.587,4.321,12.261c1.638,2.274,2.719,3.776,2.719,7.295   c0,3.519-1.082,5.021-2.719,7.295c-1.925,2.674-4.321,6.002-4.321,12.263c0,6.261,2.396,9.589,4.321,12.263   c0.787,1.093,1.44,2.01,1.912,3.056c-6.477,0.11-11.712,5.404-11.712,11.906c0,4.359,2.36,8.169,5.863,10.246   c-1.788,2.342-2.863,5.255-2.863,8.421v28.666c0,6.191,4.066,11.446,9.667,13.247v22.51h-2.083c-2.347,0-4.25,1.902-4.25,4.25   c0,2.348,1.903,4.25,4.25,4.25h12.667c2.347,0,4.25-1.902,4.25-4.25c0-2.348-1.903-4.25-4.25-4.25h-2.083v-22.509   c5.6-1.802,9.667-7.057,9.667-13.248v-28.666c0-3.167-1.075-6.08-2.863-8.421c3.502-2.078,5.862-5.887,5.862-10.246   c0-6.571-5.346-11.917-11.917-11.917h-1.317c-0.771-3.661-2.466-6.02-3.9-8.012c-1.638-2.274-2.719-3.776-2.719-7.296   c0-3.519,1.082-5.021,2.719-7.296c1.925-2.674,4.321-6.002,4.321-12.262c0-6.26-2.396-9.588-4.321-12.262   c-1.637-2.274-2.719-3.776-2.719-7.294c0-3.518,1.082-5.021,2.719-7.294c1.925-2.674,4.321-6.001,4.321-12.26   c0-6.259-2.396-9.586-4.321-12.26c-1.638-2.273-2.719-3.776-2.719-7.294c0-3.518,1.082-5.021,2.719-7.294   c1.925-2.674,4.321-6.001,4.321-12.261v-3.426h33.38v55.432c0,2.348,1.903,4.25,4.25,4.25c2.347,0,4.25-1.902,4.25-4.25V12.659   h21.5v17.432c0,2.348,1.903,4.25,4.25,4.25c2.347,0,4.25-1.902,4.25-4.25V12.659h71.088c2.347,0,4.25-1.902,4.25-4.25   c0-2.348-1.903-4.25-4.25-4.25h-482c-2.347,0-4.25,1.902-4.25,4.25c0,2.348,1.903,4.25,4.25,4.25h6.547   c0.462,7.234,2.076,11.627,3.649,15.884c1.674,4.533,3.256,8.815,3.256,17.187c0,8.388-1.587,12.785-3.268,17.441   c-1.854,5.14-3.772,10.453-3.772,20.328c0,9.922,2.021,15.165,3.805,19.791c1.664,4.315,3.235,8.392,3.235,16.73   s-1.572,12.415-3.235,16.73c-1.783,4.626-3.805,9.868-3.805,19.79c0,9.921,2.021,15.165,3.804,19.791   c1.664,4.316,3.236,8.394,3.236,16.735c0,8.458-1.386,12.724-2.854,17.239c-1.443,4.439-2.926,9.026-3.215,17.009   c-4.46,1.725-7.638,6.048-7.638,11.109v44.666c0,5.072,3.191,9.403,7.667,11.12v5.879c0,2.348,1.903,4.25,4.25,4.25   c2.347,0,4.25-1.902,4.25-4.25v-5.879c4.476-1.717,7.667-6.048,7.667-11.12v-9.15c0.264,0.291,0.51,0.594,0.791,0.875   c4.656,4.656,10.772,6.984,16.888,6.984c6.116,0,12.231-2.328,16.888-6.984l42.111-42.111v74.512h-9.545   c0.967-1.597,1.534-3.46,1.534-5.459v-10.001c0-5.836-4.748-10.583-10.583-10.583c-5.836,0-10.584,4.747-10.584,10.583v10.001   c0,1.999,0.567,3.862,1.534,5.459h-9.174c1.753-2.247,2.807-5.063,2.807-8.126c0-7.306-5.944-13.25-13.25-13.25H45.792   c-7.306,0-13.25,5.944-13.25,13.25c0,3.064,1.055,5.879,2.807,8.126H14.25c-7.858,0-14.25,6.393-14.25,14.25v6   c0,7.857,6.392,14.25,14.25,14.25h1.625v148.375c0,2.348,1.903,4.25,4.25,4.25H485.25c2.347,0,4.25-1.902,4.25-4.25v-149.39   c5.264-2.096,9-7.233,9-13.235v-6c0-7.857-6.393-14.25-14.25-14.25h-8.21c1.471-2.242,2.335-4.917,2.335-7.793v-4   c0-7.857-6.393-14.25-14.25-14.25h-8.667c-7.857,0-14.25,6.393-14.25,14.25v4c0,2.876,0.863,5.551,2.334,7.793h-7.787   c2.024-1.982,3.286-4.742,3.286-7.793v-7.999c0-4.933-3.291-9.107-7.791-10.455c1.546-2.243,2.457-4.955,2.457-7.879   c0-7.674-6.243-13.917-13.917-13.917h-5.332c-7.674,0-13.917,6.243-13.917,13.917c0,7.674,6.243,13.917,13.917,13.917h3.692   c-0.602,1.352-0.942,2.845-0.942,4.417v7.999c0,3.051,1.261,5.811,3.286,7.793h-14.928c1.756-2.369,2.809-5.29,2.809-8.459v-4.667   c0-7.857-6.393-14.25-14.25-14.25h-0.612c2.555-2.064,4.195-5.218,4.195-8.75v-6c0-6.203-5.047-11.25-11.25-11.25   c-6.203,0-11.25,5.047-11.25,11.25v6c0,4.286,2.412,8.019,5.948,9.917c-5.062,2.189-8.614,7.227-8.614,13.083v4.667   c0,3.169,1.053,6.09,2.809,8.459H250.284v-73.904l40.858,40.655c4.656,4.656,10.772,6.984,16.888,6.984   c6.116,0,12.232-2.328,16.888-6.984c9.312-9.311,9.312-24.463,0-33.775c0,0-61.123-59.726-80.627-80.626   c-5.716-6.126-13.194-10.848-22.203-10.848h-23.672c-2.171,0-3.994,1.637-4.226,3.796c-0.661,6.15-6.893,10.968-14.189,10.968   c-7.295,0-13.527-4.817-14.188-10.968c-0.232-2.159-2.054-3.796-4.226-3.796h-23.672C129.92,148.718,122.429,152.393,117.233,157.7   z M449.708,295.423c0-3.171,2.58-5.75,5.75-5.75h8.667c3.17,0,5.75,2.579,5.75,5.75v4c0,3.171-2.58,5.75-5.75,5.75h-8.667   c-3.17,0-5.75-2.579-5.75-5.75V295.423z M425.708,291.424c0-1.333,1.084-2.417,2.417-2.417c1.332,0,2.417,1.084,2.417,2.417v7.999   c0,1.333-1.084,2.417-2.417,2.417c-1.333,0-2.417-1.084-2.417-2.417V291.424z M409.042,273.09c0-2.987,2.43-5.417,5.417-5.417   h5.332c2.987,0,5.417,2.43,5.417,5.417c0,2.987-2.43,5.417-5.417,5.417h-5.332C411.472,278.507,409.042,276.077,409.042,273.09z    M383.708,265.09c0-1.517,1.233-2.75,2.75-2.75s2.75,1.233,2.75,2.75v6c0,1.517-1.233,2.75-2.75,2.75s-2.75-1.233-2.75-2.75V265.09   z M381.042,294.09c0-3.171,2.579-5.75,5.75-5.75h7.333c3.17,0,5.75,2.579,5.75,5.75v4.667c0,3.171-2.58,5.75-5.75,5.75h-7.333   c-3.171,0-5.75-2.579-5.75-5.75V294.09z M349.809,188.418c0,2.987-2.43,5.417-5.417,5.417c-2.987,0-5.417-2.43-5.417-5.417v-28.666   c0-2.987,2.43-5.417,5.417-5.417c2.987,0,5.417,2.43,5.417,5.417V188.418z M352.808,141.085c0,1.884-1.533,3.417-3.417,3.417   h-9.999c-1.884,0-3.417-1.533-3.417-3.417c0-1.884,1.533-3.417,3.417-3.417h9.999C351.275,137.668,352.808,139.201,352.808,141.085   z M17.708,283.091v-44.666c0-1.884,1.533-3.417,3.417-3.417c1.884,0,3.417,1.533,3.417,3.417v44.666   c0,1.884-1.533,3.417-3.417,3.417C19.241,286.508,17.708,284.975,17.708,283.091z M89.041,291.756c0-1.148,0.935-2.083,2.084-2.083   c1.148,0,2.083,0.935,2.083,2.083v10.001c0,1.148-0.935,2.083-2.083,2.083c-1.149,0-2.084-0.934-2.084-2.083V291.756z    M45.792,294.34h16.667c2.619,0,4.75,2.131,4.75,4.75c0,2.619-2.131,4.75-4.75,4.75H45.792c-2.619,0-4.75-2.131-4.75-4.75   C41.042,296.471,43.172,294.34,45.792,294.34z M250.284,177.579l19.444,19.444l-19.444,19.444V177.579z M318.907,267.957   c-2.905,2.905-6.768,4.505-10.877,4.505c-4.109,0-7.972-1.6-10.885-4.513l-43.269-43.054l21.862-21.862l43.168,43.168   C324.904,252.2,324.904,261.959,318.907,267.957z M109.719,218.374l-20.6-20.6l20.6-20.6V218.374z M61.597,268.806   c-2.905,2.905-6.768,4.505-10.877,4.505s-7.972-1.6-10.877-4.505c-5.998-5.998-5.998-15.757,0-21.755l43.266-43.266l21.754,21.755   L61.597,268.806z M241.784,307.216H118.219v-25.809h52.464c2.347,0,4.25-1.902,4.25-4.25c0-2.348-1.903-4.25-4.25-4.25h-52.464   v-95.994c0-10.86,8.836-19.695,19.696-19.695h20.25c2.381,7.42,9.179,12.975,17.586,14.396v77.811c0,2.348,1.903,4.25,4.25,4.25   c2.347,0,4.25-1.902,4.25-4.25v-77.811c8.407-1.422,15.205-6.977,17.585-14.396h20.25c5.891,0,11.172,2.612,14.785,6.725   c0.182,0.313,0.39,0.615,0.658,0.883l0.296,0.296c2.473,3.292,3.957,7.367,3.957,11.792V307.216z M24.375,485.841v-16.5h77.75   c2.347,0,4.25-1.902,4.25-4.25c0-2.348-1.903-4.25-4.25-4.25h-77.75v-12.5h302.75c2.347,0,4.25-1.902,4.25-4.25   c0-2.348-1.903-4.25-4.25-4.25H24.375v-46.5h49.75c2.347,0,4.25-1.902,4.25-4.25c0-2.348-1.903-4.25-4.25-4.25h-49.75v-43.125   h378.5v35.375c0,2.348,1.903,4.25,4.25,4.25c2.347,0,4.25-1.902,4.25-4.25v-35.375h32.5v102.375c0,2.348,1.903,4.25,4.25,4.25   c2.347,0,4.25-1.902,4.25-4.25V341.716H481v144.125H24.375z M484.25,315.716c3.17,0,5.75,2.579,5.75,5.75v6   c0,3.171-2.58,5.75-5.75,5.75h-470c-3.171,0-5.75-2.579-5.75-5.75v-6c0-3.171,2.579-5.75,5.75-5.75H484.25z" fill="#006DF0"/>
	<path d="M192.125,174.508c-2.347,0-4.25,1.902-4.25,4.25v12c0,2.348,1.903,4.25,4.25,4.25c2.347,0,4.25-1.902,4.25-4.25v-12   C196.375,176.41,194.472,174.508,192.125,174.508z" fill="#006DF0"/>
	<path d="M192.125,203.008c-2.347,0-4.25,1.902-4.25,4.25v9.333c0,2.348,1.903,4.25,4.25,4.25c2.347,0,4.25-1.902,4.25-4.25v-9.333   C196.375,204.91,194.472,203.008,192.125,203.008z" fill="#006DF0"/>
	<path d="M192.125,230.508c-2.347,0-4.25,1.902-4.25,4.25v8.667c0,2.348,1.903,4.25,4.25,4.25c2.347,0,4.25-1.902,4.25-4.25v-8.667   C196.375,232.41,194.472,230.508,192.125,230.508z" fill="#006DF0"/>
	<path d="M161.059,174.208h-32c-2.347,0-4.25,1.902-4.25,4.25v13.334c0,2.348,1.903,4.25,4.25,4.25h32c2.347,0,4.25-1.902,4.25-4.25   v-13.334C165.309,176.11,163.406,174.208,161.059,174.208z M156.809,187.542h-23.5v-4.834h23.5V187.542z" fill="#006DF0"/>
</g>
<g>
</g>
<g>
</g>
<g>
</g>
<g>
</g>
<g>
</g>
<g>
</g>
<g>
</g>
<g>
</g>
<g>
</g>
<g>
</g>
<g>
</g>
<g>
</g>
<g>
</g>
<g>
</g>
<g>
</g>
</svg>
