<?xml version="1.0"?>
<svg xmlns="http://www.w3.org/2000/svg" height="512px" viewBox="0 0 496 496" width="512px"><path d="m360 208h104v16h-104zm0 0" fill="#006DF0"/><path d="m448 176h16v16h-16zm0 0" fill="#006DF0"/><path d="m360 176h72v16h-72zm0 0" fill="#006DF0"/><path d="m360 144h104v16h-104zm0 0" fill="#006DF0"/><path d="m360 112h104v16h-104zm0 0" fill="#006DF0"/><path d="m144 400h80v16h-80zm0 0" fill="#006DF0"/><path d="m192 368h32v16h-32zm0 0" fill="#006DF0"/><path d="m144 368h32v16h-32zm0 0" fill="#006DF0"/><path d="m144 336h80v16h-80zm0 0" fill="#006DF0"/><path d="m144 240h80v16h-80zm0 0" fill="#006DF0"/><path d="m144 304h80v16h-80zm0 0" fill="#006DF0"/><path d="m328 280c0 10.414062 6.710938 19.214844 16 22.527344v33.472656h-72v16h-32v64h32v48h160v-48h32v-64h-32v-16h-72v-33.472656c9.289062-3.3125 16-12.113282 16-22.527344 0-13.230469-10.769531-24-24-24s-24 10.769531-24 24zm-72 120v-32h16v32zm128 48h-64v-32h64zm64-80v32h-16v-32zm-32 80h-16v-48h-96v48h-16v-96h128zm-64-176c4.40625 0 8 3.59375 8 8s-3.59375 8-8 8-8-3.59375-8-8 3.59375-8 8-8zm0 0" fill="#006DF0"/><path d="m232 144c-8.824219 0-16-7.175781-16-16h-16c0 14.863281 10.238281 27.289062 24 30.863281v17.136719h16v-17.136719c13.761719-3.574219 24-16 24-30.863281 0-17.648438-14.351562-32-32-32-8.824219 0-16-7.175781-16-16s7.175781-16 16-16 16 7.175781 16 16h16c0-14.863281-10.238281-27.289062-24-30.863281v-17.136719h-16v17.136719c-13.761719 3.574219-24 16-24 30.863281 0 17.648438 14.351562 32 32 32 8.824219 0 16 7.175781 16 16s-7.175781 16-16 16zm0 0" fill="#006DF0"/><path d="m333.097656 80c-10.882812-45.792969-52.027344-80-101.097656-80s-90.214844 34.207031-101.097656 80h-18.902344v-80h-64c-26.472656 0-48 21.527344-48 48v400c0 26.472656 21.527344 48 48 48h448v-416zm-101.097656-64c48.519531 0 88 39.480469 88 88s-39.480469 88-88 88-88-39.480469-88-88 39.480469-88 88-88zm-216 32c0-17.648438 14.351562-32 32-32h48v384h-48c-12.28125 0-23.503906 4.640625-32 12.257812zm464 432h-432c-17.648438 0-32-14.351562-32-32s14.351562-32 32-32h64v-320h16.40625c-.207031 2.648438-.40625 5.296875-.40625 8 0 57.34375 46.65625 104 104 104s104-46.65625 104-104c0-2.703125-.199219-5.351562-.40625-8h144.40625zm0 0" fill="#006DF0"/><path d="m304 368h16v16h-16zm0 0" fill="#006DF0"/><path d="m384 368h16v16h-16zm0 0" fill="#006DF0"/><path d="m144 272h16v16h-16zm0 0" fill="#006DF0"/><path d="m176 272h16v16h-16zm0 0" fill="#006DF0"/><path d="m208 272h16v16h-16zm0 0" fill="#006DF0"/><path d="m160 96h16v16h-16zm0 0" fill="#006DF0"/><path d="m288 96h16v16h-16zm0 0" fill="#006DF0"/></svg>
