<svg xmlns="http://www.w3.org/2000/svg" height="723pt" version="1.1" viewBox="-78 0 723 723.9981" width="723pt">
<g id="surface1">
<path d="M 174.898438 724 L 521.097656 270 L 300.199219 270 L 371.300781 12.296875 L 125.800781 12.296875 L 0.5 441.796875 L 246 441.796875 Z M 174.898438 724 " style=" stroke:none;fill-rule:nonzero;fill:rgb(65.490196%,67.843137%,94.117647%);fill-opacity:1;" />
<path d="M 555.300781 233.097656 C 549.898438 233.097656 545.097656 229.5 543.5 224.296875 L 494 55.699219 L 444.398438 224.296875 C 442.300781 230.699219 435.398438 234.296875 428.898438 232.199219 C 422.699219 230.199219 419.199219 223.699219 420.800781 217.398438 L 482.199219 8.796875 C 484.097656 2.296875 490.898438 -1.402344 497.398438 0.5 C 501.398438 1.699219 504.5 4.796875 505.699219 8.796875 L 567.097656 217.398438 C 569 223.898438 565.300781 230.699219 558.800781 232.597656 C 557.699219 233 556.5 233.097656 555.300781 233.097656 Z M 555.300781 233.097656 " style=" stroke:none;fill-rule:nonzero;fill:rgb(50.196078%,50.980392%,52.156863%);fill-opacity:1;" />
<path d="M 540.800781 184.097656 L 447 184.097656 C 440.199219 184.097656 434.699219 178.597656 434.699219 171.796875 C 434.699219 165 440.199219 159.5 447 159.5 L 540.800781 159.5 C 547.597656 159.5 553.097656 165 553.097656 171.796875 C 553.097656 178.597656 547.597656 184.097656 540.800781 184.097656 Z M 540.800781 184.097656 " style=" stroke:none;fill-rule:nonzero;fill:rgb(50.196078%,50.980392%,52.156863%);fill-opacity:1;" />
</g>
</svg>