<svg height="511pt" viewBox="-31 0 511 511.99961" width="511pt" xmlns="http://www.w3.org/2000/svg"><path d="m301.015625 7.691406v496.171875c0 4.242188-3.433594 7.679688-7.679687 7.679688h-285.15625c-4.234376 0-7.679688-3.4375-7.679688-7.679688v-496.171875c0-4.246094 3.445312-7.691406 7.679688-7.691406h285.15625c4.246093 0 7.679687 3.445312 7.679687 7.691406zm0 0" fill="#d2d2d7"/><path d="m301.015625 7.691406v496.171875c0 4.242188-3.433594 7.679688-7.679687 7.679688h-254.011719c-4.238281 0-7.683594-3.4375-7.683594-7.679688v-496.171875c0-4.246094 3.445313-7.691406 7.683594-7.691406h254.011719c4.246093 0 7.679687 3.445312 7.679687 7.691406zm0 0" fill="#ebebf0"/><g fill="#2476ed"><path d="m150.761719 141.15625c-4.074219 0-7.386719-3.3125-7.386719-7.386719v-3.183593l-2.316406-.613282c-9.019532-2.394531-15.5625-8.175781-15.5625-13.746094 0-3.527343 3.011718-7.621093 6.898437-7.621093 2.320313 0 3.238281.871093 5.09375 2.839843 2.277344 2.414063 5.398438 5.722657 12.550781 5.722657 7.679688 0 11.570313-3.511719 11.570313-10.4375 0-8.550781-5.589844-10.652344-14.050781-13.832031-9.472656-3.558594-20.207032-7.589844-20.207032-23.109376 0-10.066406 4.960938-17.410156 13.96875-20.675781l2.054688-.746093v-4.175782c0-4.074218 3.3125-7.386718 7.386719-7.386718s7.386719 3.3125 7.386719 7.386718v3.277344l2.585937.445312c6.128906 1.054688 13.433594 3.539063 13.433594 9.386719 0 3.605469-2.789063 7.625-6.792969 7.625-1.511719 0-2.507812-.511719-4.019531-1.285156-2.296875-1.175781-5.160157-2.636719-10.425781-2.636719-2.199219 0-5.316407.273438-7.695313 1.589844-1.488281.824219-3.464844 2.398438-3.464844 6.574219 0 5.972656 5.976563 8.179687 12.308594 10.515625 9.777344 3.609375 21.949219 8.097656 21.949219 26.429687 0 11.804688-5.730469 20.417969-15.71875 23.628907l-2.160156.695312v3.332031c0 4.074219-3.3125 7.386719-7.386719 7.386719zm0 0"/><path d="m204.652344 177.03125h-161.933594c-4.300781 0-7.785156 3.484375-7.785156 7.785156 0 4.300782 3.484375 7.785156 7.785156 7.785156h161.933594c4.300781 0 7.789062-3.484374 7.789062-7.785156 0-4.300781-3.488281-7.785156-7.789062-7.785156zm0 0"/><path d="m174.894531 234.121094h-132.175781c-4.300781 0-7.785156 3.488281-7.785156 7.789062 0 4.300782 3.484375 7.785156 7.785156 7.785156h132.175781c4.300781 0 7.785157-3.484374 7.785157-7.785156 0-4.300781-3.484376-7.789062-7.785157-7.789062zm0 0"/><path d="m129.914062 291.214844h-87.195312c-4.300781 0-7.785156 3.484375-7.785156 7.785156s3.484375 7.785156 7.785156 7.785156h87.195312c4.300782 0 7.785157-3.484375 7.785157-7.785156s-3.484375-7.785156-7.785157-7.785156zm0 0"/><path d="m42.71875 363.878906h74.046875c4.300781 0 7.785156-3.484375 7.785156-7.785156s-3.484375-7.785156-7.785156-7.785156h-74.046875c-4.300781 0-7.785156 3.484375-7.785156 7.785156s3.484375 7.785156 7.785156 7.785156zm0 0"/><path d="m129.914062 405.402344h-87.195312c-4.300781 0-7.785156 3.484375-7.785156 7.785156s3.484375 7.785156 7.785156 7.785156h87.195312c4.300782 0 7.785157-3.484375 7.785157-7.785156s-3.484375-7.785156-7.785157-7.785156zm0 0"/><path d="m272.945312 177.03125h-34.378906c-4.300781 0-7.785156 3.484375-7.785156 7.785156 0 4.300782 3.484375 7.785156 7.785156 7.785156h34.378906c4.300782 0 7.785157-3.484374 7.785157-7.785156 0-4.300781-3.488281-7.785156-7.785157-7.785156zm0 0"/></g><path d="m380.34375 490.136719c-19.335938 11.898437-40.347656 18.789062-61.503906 21.03125-54.757813 5.847656-110.5625-19.367188-141.320313-69.390625-42.652343-69.363282-21.011719-160.171875 48.363281-202.828125 28.847657-17.738281 61.402344-24.351563 92.65625-21.039063 43.910157 4.636719 85.253907 28.886719 110.167969 69.402344 42.65625 69.363281 21 160.171875-48.363281 202.824219zm0 0" fill="#f44545"/><path d="m380.34375 490.136719c-19.335938 11.898437-40.347656 18.789062-61.503906 21.03125-43.910156-4.636719-85.265625-28.878907-110.179688-69.390625-42.652344-69.363282-21.007812-160.171875 48.363282-202.828125 19.339843-11.894531 40.351562-18.789063 61.515624-21.039063 43.910157 4.636719 85.253907 28.886719 110.167969 69.402344 42.65625 69.363281 21 160.171875-48.363281 202.824219zm0 0" fill="#fb5858"/><path d="m370.882812 356.269531c-22.332031 0-34.628906 11.292969-34.628906 31.796875v34.984375c0 20.503907 12.296875 31.792969 34.628906 31.792969 22.332032 0 34.632813-11.289062 34.632813-31.792969v-34.984375c0-20.503906-12.300781-31.796875-34.632813-31.796875zm12.175782 66.78125c0 7.664063-3.867188 11.234375-12.175782 11.234375-8.257812 0-11.941406-3.464844-11.941406-11.234375v-34.984375c0-7.769531 3.683594-11.234375 11.941406-11.234375 8.308594 0 12.175782 3.570313 12.175782 11.234375zm0 0" fill="#ffc14f"/><path d="m269.96875 342.675781v-34.988281c0-20.503906-12.296875-31.792969-34.628906-31.792969-22.332032 0-34.628906 11.289063-34.628906 31.792969v34.988281c0 20.5 12.296874 31.792969 34.628906 31.792969 22.332031 0 34.628906-11.292969 34.628906-31.792969zm-22.453125 0c0 7.664063-3.867187 11.230469-12.175781 11.230469-8.257813 0-11.941406-3.464844-11.941406-11.230469v-34.988281c0-7.765625 3.683593-11.230469 11.941406-11.230469 8.308594 0 12.175781 3.566407 12.175781 11.230469zm0 0" fill="#ffc14f"/><path d="m357.878906 283.164062c3.515625-8.796874-3.570312-16.488281-11.742187-16.488281-4.347657 0-7.824219 2.113281-9.539063 5.792969l-86.699218 173.632812c-.859376 1.464844-1.273438 3.054688-1.273438 4.84375 0 5.539063 4.792969 11.464844 11.933594 11.464844 4.539062 0 8.644531-2.351562 10.464844-5.992187.28125-.558594-6.09375 12.15625 86.855468-173.253907zm0 0" fill="#ffc14f"/></svg>