<?xml version="1.0"?>
<svg xmlns="http://www.w3.org/2000/svg" height="512px" viewBox="-45 0 512 512" width="512px"><path d="m120.085938 180.144531h241.804687v30h-241.804687zm0 0" fill="#00d9ce"/><path d="m120.085938 240.191406h241.804687v30h-241.804687zm0 0" fill="#00d9ce"/><path d="m120.085938 300.238281h241.804687v30h-241.804687zm0 0" fill="#00d9ce"/><path d="m180.132812 120.097656h121.710938v30h-121.710938zm0 0" fill="#00d9ce"/><path d="m361.878906 60.046875v-60.046875h-361.878906v451.953125h60.046875v60.046875h263.023437l98.859376-98.859375v-353.09375zm-331.878906 361.90625v-391.953125h301.878906v30.046875h-271.832031v361.90625zm60.046875-331.90625h301.882813v301.882813h-90.074219v90.070312h-211.808594zm280.667969 331.882813-38.859375 38.855468v-38.855468zm0 0" fill="#00d9ce"/></svg>
