<?xml version="1.0" encoding="iso-8859-1"?>
<!-- Generator: Adobe Illustrator 19.0.0, SVG Export Plug-In . SVG Version: 6.00 Build 0)  -->
<svg version="1.1" id="Capa_1" xmlns="http://www.w3.org/2000/svg" xmlns:xlink="http://www.w3.org/1999/xlink" x="0px" y="0px"
	 viewBox="0 0 512.002 512.002" style="enable-background:new 0 0 512.002 512.002;" xml:space="preserve">
<g>
	<path style="fill:#ED6294;" d="M416.134,430.222h-12.363c-4.267,0-7.726-3.459-7.726-7.726s3.459-7.726,7.726-7.726h12.362
		c4.267,0,7.726,3.459,7.726,7.726S420.401,430.222,416.134,430.222z M366.685,430.222h-12.362c-4.267,0-7.726-3.459-7.726-7.726
		s3.459-7.726,7.726-7.726h12.362c4.267,0,7.726,3.459,7.726,7.726S370.952,430.222,366.685,430.222z M317.236,430.222h-12.362
		c-4.267,0-7.726-3.459-7.726-7.726s3.459-7.726,7.726-7.726h12.362c4.267,0,7.726,3.459,7.726,7.726
		S321.503,430.222,317.236,430.222z M422.5,399.502c-4.267,0-7.726-3.459-7.726-7.726v-12.362c0-4.268,3.459-7.726,7.726-7.726
		s7.726,3.459,7.726,7.726v12.362C430.226,396.043,426.767,399.502,422.5,399.502z M422.5,350.053c-4.267,0-7.726-3.459-7.726-7.726
		v-12.362c0-4.268,3.459-7.726,7.726-7.726s7.726,3.459,7.726,7.726v12.362C430.226,346.595,426.767,350.053,422.5,350.053z
		 M422.5,300.605c-4.267,0-7.726-3.459-7.726-7.726v-12.362c0-4.268,3.459-7.726,7.726-7.726s7.726,3.459,7.726,7.726v12.362
		C430.226,297.146,426.767,300.605,422.5,300.605z"/>
	<path style="fill:#ED6294;" d="M89.507,244.798c-4.267,0-7.726-3.459-7.726-7.726V224.71c0-4.268,3.459-7.726,7.726-7.726
		s7.726,3.459,7.726,7.726v12.362C97.233,241.339,93.774,244.798,89.507,244.798z M89.507,195.349c-4.267,0-7.726-3.459-7.726-7.726
		v-12.362c0-4.268,3.459-7.726,7.726-7.726s7.726,3.459,7.726,7.726v12.362C97.233,191.89,93.774,195.349,89.507,195.349z
		 M89.507,145.9c-4.267,0-7.726-3.459-7.726-7.726v-12.362c0-4.268,3.459-7.726,7.726-7.726s7.726,3.459,7.726,7.726v12.362
		C97.233,142.442,93.774,145.9,89.507,145.9z M201.545,97.23h-12.362c-4.267,0-7.726-3.459-7.726-7.726
		c0-4.268,3.459-7.726,7.726-7.726h12.362c4.267,0,7.726,3.459,7.726,7.726C209.271,93.772,205.812,97.23,201.545,97.23z
		 M152.096,97.23h-12.362c-4.267,0-7.726-3.459-7.726-7.726c0-4.268,3.459-7.726,7.726-7.726h12.362
		c4.267,0,7.726,3.459,7.726,7.726C159.823,93.772,156.364,97.23,152.096,97.23z M102.648,97.23H90.286
		c-4.267,0-7.726-3.459-7.726-7.726c0-4.268,3.459-7.726,7.726-7.726h12.362c4.267,0,7.726,3.459,7.726,7.726
		C110.374,93.772,106.915,97.23,102.648,97.23z"/>
</g>
<path style="fill:#34ACD6;" d="M239.843,375.792c-4.652-1.709-9.376-2.903-14.089-3.6l8.931-24.183l-5.522-2.043l-2.438-0.9
	l-44.37-16.415l-14.069,38.028l-0.769,2.084l-17.962,48.578c-13.452,36.4,5.148,76.826,41.538,90.278
	c36.41,13.462,76.826-5.128,90.288-41.538C294.843,429.679,276.244,389.264,239.843,375.792z M246.569,453.204
	c-6.352,17.184-25.416,25.952-42.6,19.601c-17.174-6.352-25.953-25.427-19.601-42.6c6.352-17.174,25.426-25.952,42.6-19.611
	C244.152,416.956,252.921,436.031,246.569,453.204z"/>
<path style="fill:#0086C0;" d="M226.725,345.065l-44.37-16.415l-14.069,38.028l-0.769,2.084l61.645-22.797L226.725,345.065z"/>
<path style="fill:#CEDBDA;" d="M314.545,132.054l-83.38,225.481l-52.34-19.348l67.652-182.962c2.62-7.07,6.645-13.199,11.641-18.205
	c13.533-13.533,34.216-18.762,53.341-11.682C314.171,126.34,315.546,129.344,314.545,132.054z"/>
<g>
	<path style="fill:#AFC3C3;" d="M204.09,269.858l-25.265,68.33l35.682,13.199l21.937-8.111l36.572-98.905L204.09,269.858z"/>
	<path style="fill:#AFC3C3;" d="M314.545,132.054l-42.297,114.399l-13.967,37.767c-8.668-5.785-16.84-12.441-24.395-19.925
		c-7.181-7.12-13.613-14.797-19.267-22.918l31.859-86.151c2.62-7.07,6.645-13.199,11.641-18.205
		c13.533-13.533,34.216-18.762,53.341-11.682C314.171,126.34,315.546,129.344,314.545,132.054z"/>
</g>
<path style="fill:#FFD243;" d="M497.164,150.836c-0.698,79.001-62.565,143.143-140.241,147.887
	c-3.489,0.212-7.019,0.303-10.579,0.273c-40.567-0.364-77.21-16.86-103.911-43.318c-27.641-27.409-44.623-65.518-44.249-107.512
	c0.738-82.561,68.259-148.898,150.83-148.16C431.574,0.744,497.902,68.266,497.164,150.836z"/>
<path style="fill:#EFAE2E;" d="M411.033,259.127c-6.999,15.221-19.51,26.802-35.217,32.608l-18.893,6.989
	c-3.489,0.212-7.019,0.303-10.579,0.273c-40.567-0.364-77.21-16.86-103.911-43.318l148.14-54.777
	c1.942-0.718,3.965-1.082,6.018-1.082c7.242,0,13.785,4.561,16.293,11.348C418.689,226.873,418.032,243.905,411.033,259.127z"/>
<g>
	<path style="fill:#ED6294;" d="M316.673,141.064c-0.071,0-0.142-0.001-0.214-0.001c-6.178-0.055-11.966-2.513-16.296-6.922
		c-4.33-4.408-6.685-10.238-6.629-16.418c0.113-12.684,10.47-22.927,23.13-22.927c0.07,0,0.138,0.001,0.208,0.001
		c6.179,0.055,11.966,2.513,16.297,6.922c4.33,4.408,6.684,10.238,6.629,16.418v-0.001c-0.055,6.179-2.513,11.967-6.921,16.298
		C328.52,138.714,322.773,141.064,316.673,141.064z M316.666,110.251c-4.204,0-7.642,3.4-7.68,7.613
		c-0.018,2.051,0.764,3.987,2.201,5.45c1.438,1.464,3.359,2.28,5.41,2.298c0.024,0.001,0.047,0.001,0.071,0.001
		c2.026,0,3.934-0.781,5.38-2.201c1.463-1.438,2.279-3.359,2.298-5.41c0,0,0,0,0-0.001c0.018-2.051-0.764-3.987-2.201-5.45
		c-1.438-1.464-3.359-2.28-5.409-2.298C316.713,110.251,316.689,110.251,316.666,110.251z"/>
	<path style="fill:#ED6294;" d="M378.692,204.199c-0.071,0-0.142-0.001-0.214-0.001c-12.754-0.114-23.038-10.583-22.925-23.338
		c0.114-12.756,10.593-23.011,23.338-22.927c12.756,0.115,23.04,10.585,22.926,23.339l-7.726-0.069l7.726,0.069
		c-0.055,6.179-2.513,11.966-6.921,16.297C390.539,201.849,384.792,204.199,378.692,204.199z M378.684,173.385
		c-4.203,0-7.642,3.4-7.68,7.613c-0.037,4.234,3.377,7.71,7.611,7.747c2.031,0.049,3.988-0.763,5.451-2.2
		c1.464-1.438,2.28-3.359,2.298-5.411c0.038-4.234-3.377-7.709-7.612-7.747C378.73,173.385,378.707,173.385,378.684,173.385z"/>
	<path style="fill:#ED6294;" d="M315.892,188.232c-2.01,0-4.017-0.779-5.531-2.331c-2.979-3.054-2.919-7.946,0.135-10.926
		l63.568-62.015c3.054-2.981,7.946-2.921,10.926,0.135c2.979,3.054,2.919,7.946-0.135,10.926l-63.568,62.015
		C319.785,187.502,317.837,188.232,315.892,188.232z"/>
</g>
<path style="fill:#58C3E0;" d="M60.755,245.449c-36.405,13.462-55.003,53.884-41.541,90.29
	c13.459,36.397,53.881,54.995,90.287,41.533l88.677-32.791l-19.353-52.337l-24.175,8.939c-0.704-4.718-1.894-9.441-3.613-14.09
	C137.574,250.587,97.152,231.99,60.755,245.449z M73.628,280.261c17.173-6.35,36.251,2.42,42.604,19.601
	c6.35,17.173-2.428,36.254-19.602,42.605c-17.181,6.353-36.254-2.428-42.604-19.602C47.673,305.684,56.446,286.615,73.628,280.261z"
	/>
<path style="fill:#E7F2EC;" d="M188.646,348.005l-19.354-52.338l225.491-83.383c2.707-1.001,5.714,0.382,6.715,3.089l0,0
	c9.688,26.198-3.697,55.29-29.895,64.978L188.646,348.005z"/>
<path style="fill:#0086C0;" d="M215.352,319.269c-2.01,0-4.017-0.779-5.532-2.331c-2.979-3.055-2.948-7.978,0.106-10.957
	c3.055-2.979,7.916-2.95,10.896,0.105l0.059,0.061c2.98,3.055,2.919,7.947-0.136,10.927
	C219.244,318.538,217.298,319.269,215.352,319.269z"/>
<g>
</g>
<g>
</g>
<g>
</g>
<g>
</g>
<g>
</g>
<g>
</g>
<g>
</g>
<g>
</g>
<g>
</g>
<g>
</g>
<g>
</g>
<g>
</g>
<g>
</g>
<g>
</g>
<g>
</g>
</svg>
