<?xml version="1.0"?>
<svg xmlns="http://www.w3.org/2000/svg" height="512px" viewBox="0 -7 469.21061 469" width="512px"><path d="m207.800781 368.90625c-8.726562 0-15.796875 7.074219-15.796875 15.800781 0 8.726563 7.070313 15.800781 15.796875 15.800781 8.726563 0 15.800781-7.074218 15.800781-15.800781-.019531-8.71875-7.082031-15.78125-15.800781-15.800781zm0 0" fill="#006DF0"/><path d="m468.703125 298.40625c-1.742187-5.222656-7.355469-8.074219-12.601563-6.398438l-185 60.898438c-13.976562-28.035156-44.757812-43.507812-75.597656-38l-88.800781-269.5c-5.621094-17.023438-19.933594-29.730469-37.5-33.300781l-57.199219-11.796875c-5.414062-1.105469-10.699218 2.386718-11.800781 7.796875-1.105469 5.414062 2.386719 10.699219 7.800781 11.800781l57.199219 11.699219c10.535156 2.164062 19.117187 9.789062 22.5 20l88.800781 269.5c-31.347656 15.449219-46.730468 51.460937-36.226562 84.789062s43.753906 54.011719 78.292968 48.695313c34.539063-5.316406 60.035157-35.035156 60.03125-69.984375.007813-4.292969-.394531-8.578125-1.199218-12.796875l184.898437-60.800782c2.53125-.808593 4.628907-2.597656 5.832031-4.964843 1.203126-2.367188 1.40625-5.117188.570313-7.636719zm-260.902344 122.101562c-19.769531 0-35.796875-16.027343-35.796875-35.800781 0-19.773437 16.027344-35.800781 35.796875-35.800781 19.773438 0 35.800781 16.027344 35.800781 35.800781-.050781 19.75-16.046874 35.75-35.800781 35.800781zm0 0" fill="#006DF0"/><path d="m202.003906 155.207031 188.097656-61.898437-7.300781-22.203125c-1.828125-5.523438-6.980469-9.265625-12.796875-9.296875-1.433594-.011719-2.851562.222656-4.203125.699218l-162.5 53.5c-7.0625 2.324219-10.910156 9.929688-8.597656 17zm0 0" fill="#006DF0"/><path d="m245.601562 287.90625c1.09375 3.394531 3.507813 6.207031 6.699219 7.800781 3.195313 1.605469 6.894531 1.894531 10.300781.800781l162.5-53.5c3.394532-1.09375 6.207032-3.507812 7.800782-6.699218 1.605468-3.195313 1.894531-6.894532.800781-10.300782l-37.402344-113.699218-188.097656 61.898437zm0 0" fill="#006DF0"/></svg>
