<?xml version="1.0" standalone="no"?><!DOCTYPE svg PUBLIC "-//W3C//DTD SVG 1.1//EN" "http://www.w3.org/Graphics/SVG/1.1/DTD/svg11.dtd"><svg class="icon" height="512" viewBox="0 0 1024 1024" version="1.1" xmlns="http://www.w3.org/2000/svg"><path d="M224.187904 210.193067a32.170667 32.170667 0 0 0-32.273067 32.034133v0.221867c0 17.902933 14.370133 32.221867 32.273067 32.221866h384.6656a32.136533 32.136533 0 0 0 32.273067-32.221866 32.170667 32.170667 0 0 0-32.0512-32.273067H224.187904z m128.187733 530.909866c17.92 0 32.290133-14.336 32.290134-32.238933a32.119467 32.119467 0 0 0-32.290134-32.238933h-128.2048c-17.902933 0-32.273067 14.336-32.273066 32.238933s14.370133 32.238933 32.273066 32.238933h128.2048z m64.5632 138.9056H128.204971a63.931733 63.931733 0 0 1-63.744-63.7952V145.732267a63.880533 63.880533 0 0 1 63.744-63.726934h576.631466a63.9488 63.9488 0 0 1 63.8464 63.726934v253.559466c0 17.902933 14.250667 32.273067 32.170667 32.273067s32.290133-14.370133 32.290133-32.273067V145.732267a128.119467 128.119467 0 0 0-128.3072-128.187734H128.204971A128.0512 128.0512 0 0 0 0.000171 145.732267v669.7472A128.119467 128.119467 0 0 0 128.204971 943.786667H416.938837a32.085333 32.085333 0 0 0 32.187734-32.273067c-0.017067-17.220267-14.2848-31.505067-32.187734-31.505067z m0-437.674666H224.187904c-17.169067 0-31.5392 14.3872-31.5392 32.290133s14.370133 32.170667 32.273067 32.170667H416.938837c17.902933 0 32.187733-14.267733 32.187734-32.170667s-14.2848-32.290133-32.187734-32.290133z m597.384534 507.170133l-97.365334-97.467733c27.1872-37.239467 44.373333-83.0976 44.373334-132.539734 0-123.938133-100.283733-224.2048-224.187734-224.2048-123.938133 0-224.2048 100.266667-224.2048 224.2048 0 123.972267 100.266667 224.273067 224.2048 224.273067 50.090667 0 95.266133-17.2032 132.5568-44.458667l97.365334 97.467734a33.6384 33.6384 0 0 0 47.274666 0c12.868267-12.919467 12.868267-33.672533-0.017066-47.274667z m-277.1968-69.495467c-88.832 0-160.477867-71.662933-160.477867-160.494933s71.645867-160.426667 160.477867-160.426667c88.797867 0 160.443733 71.594667 160.443733 160.426667s-71.6288 160.494933-160.443733 160.494933z" fill="#3F78AD" /></svg>