<svg height="480pt" viewBox="0 0 480.00148 480" width="480pt" xmlns="http://www.w3.org/2000/svg"><path d="m40 120h208c17.671875 0 32 14.328125 32 32v288c0 17.675781-14.328125 32-32 32h-208c-17.671875 0-32-14.324219-32-32v-288c0-17.671875 14.328125-32 32-32zm0 0" fill="#ffb655"/><path d="m248 184v32c0 17.675781-14.328125 32-32 32h-144c-17.671875 0-32-14.324219-32-32v-32c0-17.671875 14.328125-32 32-32h144c.722656-.011719 1.441406.015625 2.160156.082031 16.792969 1.136719 29.835938 15.085938 29.839844 31.917969zm0 0" fill="#e6e7e8"/><g fill="#ffd5ca"><path d="m88 320c0 13.253906-10.746094 24-24 24s-24-10.746094-24-24 10.746094-24 24-24 24 10.746094 24 24zm0 0"/><path d="m168 320c0 13.253906-10.746094 24-24 24s-24-10.746094-24-24 10.746094-24 24-24 24 10.746094 24 24zm0 0"/><path d="m88 400c0 13.253906-10.746094 24-24 24s-24-10.746094-24-24 10.746094-24 24-24 24 10.746094 24 24zm0 0"/><path d="m168 400c0 13.253906-10.746094 24-24 24s-24-10.746094-24-24 10.746094-24 24-24 24 10.746094 24 24zm0 0"/><path d="m224 424c13.253906 0 24-10.746094 24-24v-80c0-13.253906-10.746094-24-24-24s-24 10.746094-24 24v80c0 13.253906 10.746094 24 24 24zm0 0"/></g><path d="m248 184v32c0 17.675781-14.328125 32-32 32h-128.640625c49.109375-23.6875 93.445313-56.203125 130.800781-95.917969 16.792969 1.136719 29.835938 15.085938 29.839844 31.917969zm0 0" fill="#d8d7da"/><path d="m472 136c0 70.691406-57.308594 128-128 128s-128-57.308594-128-128 57.308594-128 128-128 128 57.308594 128 128zm0 0" fill="#ff7956"/><path d="m448 136c0 57.4375-46.5625 104-104 104s-104-46.5625-104-104 46.5625-104 104-104 104 46.5625 104 104zm0 0" fill="#ffde55"/><path d="m64 288c-17.671875 0-32 14.328125-32 32 0 17.675781 14.328125 32 32 32s32-14.324219 32-32c0-17.671875-14.328125-32-32-32zm0 48c-8.835938 0-16-7.164062-16-16s7.164062-16 16-16 16 7.164062 16 16-7.164062 16-16 16zm0 0"/><path d="m144 288c-17.671875 0-32 14.328125-32 32 0 17.675781 14.328125 32 32 32s32-14.324219 32-32c0-17.671875-14.328125-32-32-32zm0 48c-8.835938 0-16-7.164062-16-16s7.164062-16 16-16 16 7.164062 16 16-7.164062 16-16 16zm0 0"/><path d="m64 368c-17.671875 0-32 14.328125-32 32 0 17.675781 14.328125 32 32 32s32-14.324219 32-32c0-17.671875-14.328125-32-32-32zm0 48c-8.835938 0-16-7.164062-16-16s7.164062-16 16-16 16 7.164062 16 16-7.164062 16-16 16zm0 0"/><path d="m144 368c-17.671875 0-32 14.328125-32 32 0 17.675781 14.328125 32 32 32s32-14.324219 32-32c0-17.671875-14.328125-32-32-32zm0 48c-8.835938 0-16-7.164062-16-16s7.164062-16 16-16 16 7.164062 16 16-7.164062 16-16 16zm0 0"/><path d="m224 288c-17.671875 0-32 14.328125-32 32v80c0 17.675781 14.328125 32 32 32s32-14.324219 32-32v-80c0-17.671875-14.328125-32-32-32zm16 112c0 8.835938-7.164062 16-16 16s-16-7.164062-16-16v-80c0-8.835938 7.164062-16 16-16s16 7.164062 16 16zm0 0"/><path d="m344 0c-65.792969.105469-122.089844 47.25-133.753906 112h-170.246094c-22.082031.027344-39.9726562 17.921875-40 40v288c.0273438 22.082031 17.917969 39.972656 40 40h208c22.082031-.027344 39.972656-17.917969 40-40v-180.207031c50.585938 22.894531 110.007812 12.726562 150.101562-25.683594 40.097657-38.414063 52.800782-97.347656 32.089844-148.867187-20.707031-51.519532-70.667968-85.2656255-126.191406-85.242188zm-104.960938 222.402344c-2.867187 10.367187-12.28125 17.558594-23.039062 17.597656h-144c-13.253906 0-24-10.746094-24-24v-32c0-13.253906 10.746094-24 24-24h138.246094c4.078125 22.929688 13.992187 44.421875 28.792968 62.402344zm32.960938 217.597656c0 13.253906-10.746094 24-24 24h-208c-13.253906 0-24-10.746094-24-24v-288c0-13.253906 10.746094-24 24-24h168.40625c-.160156 2.664062-.40625 5.296875-.40625 8s.246094 5.335938.40625 8h-136.40625c-22.082031.027344-39.972656 17.921875-40 40v32c.027344 22.082031 17.917969 39.972656 40 40h144c14.65625-.027344 28.128906-8.050781 35.136719-20.917969 6.417969 6.03125 13.40625 11.429688 20.863281 16.117188zm72-184c-66.273438 0-120-53.726562-120-120s53.726562-120 120-120 120 53.726562 120 120c-.074219 66.242188-53.757812 119.925781-120 120zm0 0"/><path d="m368 80h-16v-16c0-4.417969-3.582031-8-8-8s-8 3.582031-8 8v16h-16c-13.253906 0-24 10.746094-24 24v16c0 13.253906 10.746094 24 24 24h48c4.417969 0 8 3.582031 8 8v16c0 4.417969-3.582031 8-8 8h-48c-4.417969 0-8-3.582031-8-8v-8c0-4.417969-3.582031-8-8-8s-8 3.582031-8 8v8c0 13.253906 10.746094 24 24 24h16v16c0 4.417969 3.582031 8 8 8s8-3.582031 8-8v-16h16c13.253906 0 24-10.746094 24-24v-16c0-13.253906-10.746094-24-24-24h-48c-4.417969 0-8-3.582031-8-8v-16c0-4.417969 3.582031-8 8-8h48c4.417969 0 8 3.582031 8 8v8c0 4.417969 3.582031 8 8 8s8-3.582031 8-8v-8c0-13.253906-10.746094-24-24-24zm0 0"/><path d="m344 24c-61.855469 0-112 50.144531-112 112s50.144531 112 112 112 112-50.144531 112-112c-.066406-61.828125-50.171875-111.933594-112-112zm0 208c-53.019531 0-96-42.980469-96-96s42.980469-96 96-96 96 42.980469 96 96c-.058594 52.996094-43.003906 95.945312-96 96zm0 0"/></svg>