<?xml version="1.0" encoding="iso-8859-1"?>
<!-- Generator: Adobe Illustrator 21.0.0, SVG Export Plug-In . SVG Version: 6.00 Build 0)  -->
<svg version="1.1" id="Capa_1" xmlns="http://www.w3.org/2000/svg" xmlns:xlink="http://www.w3.org/1999/xlink" x="0px" y="0px"
	 viewBox="0 0 609.677 609.677" style="enable-background:new 0 0 609.677 609.677;" xml:space="preserve">
<g>
	<g>
		<g id="filled_outline_16_">
			<rect x="152.419" y="101.613" style="fill:#C1C7C9;" width="447.097" height="345.484"/>
			<polygon style="fill:#DADDDF;" points="152.419,406.452 518.226,406.452 599.516,325.161 599.516,101.613 152.419,101.613 			"/>
			<polygon style="fill:#CFD2D4;" points="223.548,406.452 518.226,406.452 599.516,325.161 599.516,101.613 528.387,101.613 			"/>
			<rect x="152.419" y="30.484" style="fill:#DE4C3C;" width="447.097" height="71.129"/>
			<rect x="193.065" y="0" style="fill:#C1C7C9;" width="20.323" height="60.968"/>
			<rect x="274.355" y="0" style="fill:#C1C7C9;" width="20.323" height="60.968"/>
			<rect x="355.645" y="0" style="fill:#C1C7C9;" width="20.323" height="60.968"/>
			<rect x="436.935" y="0" style="fill:#C1C7C9;" width="20.323" height="60.968"/>
			<rect x="518.226" y="0" style="fill:#C1C7C9;" width="20.323" height="60.968"/>
			<rect x="355.645" y="152.419" style="fill:#C1C7C9;" width="40.645" height="40.645"/>
			<rect x="436.935" y="152.419" style="fill:#C1C7C9;" width="40.645" height="40.645"/>
			<rect x="518.226" y="152.419" style="fill:#C1C7C9;" width="40.645" height="40.645"/>
			<rect x="274.355" y="152.419" style="fill:#C1C7C9;" width="40.645" height="40.645"/>
			<rect x="355.645" y="233.71" style="fill:#C1C7C9;" width="40.645" height="40.645"/>
			<rect x="436.935" y="233.71" style="fill:#C1C7C9;" width="40.645" height="40.645"/>
			<rect x="518.226" y="233.71" style="fill:#C1C7C9;" width="40.645" height="40.645"/>
			<rect x="274.355" y="233.71" style="fill:#C1C7C9;" width="40.645" height="40.645"/>
			<rect x="193.065" y="233.71" style="fill:#C1C7C9;" width="40.645" height="40.645"/>
			<rect x="355.645" y="315" style="fill:#C1C7C9;" width="40.645" height="40.645"/>
			<rect x="436.935" y="315" style="fill:#C1C7C9;" width="40.645" height="40.645"/>
			<rect x="274.355" y="315" style="fill:#C1C7C9;" width="40.645" height="40.645"/>
			<rect x="193.065" y="315" style="fill:#C1C7C9;" width="40.645" height="40.645"/>
			<polygon style="fill:#EBEBEB;" points="518.226,406.452 599.516,325.161 518.226,325.161 			"/>
			<rect x="101.613" y="142.258" style="fill:#FDB62F;" width="20.323" height="20.323"/>
			<rect x="60.968" y="142.258" style="fill:#FDB62F;" width="20.323" height="20.323"/>
			<rect x="20.323" y="142.258" style="fill:#FDB62F;" width="20.323" height="20.323"/>
			<rect x="20.323" y="182.903" style="fill:#FDB62F;" width="20.323" height="20.323"/>
			<rect x="20.323" y="223.548" style="fill:#FDB62F;" width="20.323" height="20.323"/>
			<rect x="20.323" y="264.194" style="fill:#FDB62F;" width="20.323" height="20.323"/>
			<rect x="467.419" y="558.871" style="fill:#FDB62F;" width="20.323" height="20.323"/>
			<rect x="426.774" y="558.871" style="fill:#FDB62F;" width="20.323" height="20.323"/>
			<rect x="508.065" y="558.871" style="fill:#FDB62F;" width="20.323" height="20.323"/>
			<rect x="548.71" y="558.871" style="fill:#FDB62F;" width="20.323" height="20.323"/>
			<rect x="548.71" y="518.226" style="fill:#FDB62F;" width="20.323" height="20.323"/>
			<rect x="548.71" y="477.581" style="fill:#FDB62F;" width="20.323" height="20.323"/>
			<rect x="10.161" y="396.29" style="fill:#6B962A;" width="386.129" height="203.226"/>
			<rect x="10.161" y="355.645" style="fill:#80A834;" width="386.129" height="203.226"/>
			<rect x="10.161" y="315" style="fill:#88B337;" width="386.129" height="203.226"/>
			<path style="fill:#6B962A;" d="M335.323,477.581H71.129c0-11.228-9.094-20.323-20.323-20.323l0,0v-81.29l0,0
				c11.228,0,20.323-9.094,20.323-20.323h264.194c0,11.228,9.094,20.323,20.323,20.323l0,0v81.29l0,0
				C344.417,457.258,335.323,466.352,335.323,477.581z"/>
			<circle style="fill:#88B337;" cx="203.226" cy="416.613" r="60.968"/>
			<rect x="294.677" y="406.452" style="fill:#88B337;" width="20.323" height="20.323"/>
			<rect x="91.452" y="406.452" style="fill:#88B337;" width="20.323" height="20.323"/>
			<rect x="182.903" y="315" style="fill:#FDB62F;" width="40.645" height="284.516"/>
			<rect x="182.903" y="518.226" style="fill:#FFA230;" width="40.645" height="81.29"/>
			<path d="M599.516,20.323h-60.968V0h-20.323v20.323h-60.968V0h-20.323v20.323h-60.968V0h-20.323v20.323h-60.968V0h-20.323v20.323
				h-60.968V0h-20.323v20.323h-40.645c-5.609,0-10.161,4.552-10.161,10.161v254.032h20.323V111.774h426.774V315h-71.129
				c-5.609,0-10.161,4.552-10.161,10.161v71.129h-81.29v20.323h91.452c2.693-0.01,5.274-1.077,7.184-2.977l63.945-63.945v87.245
				H426.774v20.323h172.742c5.609,0,10.161-4.552,10.161-10.161V30.484C609.677,24.875,605.125,20.323,599.516,20.323z
				 M162.581,91.452V40.645h30.484v20.323h20.323V40.645h60.968v20.323h20.323V40.645h60.968v20.323h20.323V40.645h60.968v20.323
				h20.323V40.645h60.968v20.323h20.323V40.645h50.806v50.806H162.581z M528.387,381.922v-46.6h46.6L528.387,381.922z"/>
			<path d="M396.29,142.258h-40.645c-5.609,0-10.161,4.552-10.161,10.161v40.645c0,5.609,4.552,10.161,10.161,10.161h40.645
				c5.609,0,10.161-4.552,10.161-10.161v-40.645C406.452,146.81,401.899,142.258,396.29,142.258z M386.129,182.903h-20.323v-20.323
				h20.323V182.903z"/>
			<path d="M436.935,203.226h40.645c5.609,0,10.161-4.552,10.161-10.161v-40.645c0-5.609-4.552-10.161-10.161-10.161h-40.645
				c-5.609,0-10.161,4.552-10.161,10.161v40.645C426.774,198.674,431.326,203.226,436.935,203.226z M447.097,162.581h20.323v20.323
				h-20.323V162.581z"/>
			<path d="M518.226,203.226h40.645c5.609,0,10.161-4.552,10.161-10.161v-40.645c0-5.609-4.552-10.161-10.161-10.161h-40.645
				c-5.609,0-10.161,4.552-10.161,10.161v40.645C508.065,198.674,512.617,203.226,518.226,203.226z M528.387,162.581h20.323v20.323
				h-20.323V162.581z"/>
			<path d="M274.355,203.226H315c5.609,0,10.161-4.552,10.161-10.161v-40.645c0-5.609-4.552-10.161-10.161-10.161h-40.645
				c-5.609,0-10.161,4.552-10.161,10.161v40.645C264.194,198.674,268.746,203.226,274.355,203.226z M284.516,162.581h20.323v20.323
				h-20.323V162.581z"/>
			<path d="M396.29,223.548h-40.645c-5.609,0-10.161,4.552-10.161,10.161v40.645c0,5.609,4.552,10.161,10.161,10.161h40.645
				c5.609,0,10.161-4.552,10.161-10.161V233.71C406.452,228.101,401.899,223.548,396.29,223.548z M386.129,264.194h-20.323v-20.323
				h20.323V264.194z"/>
			<path d="M426.774,274.355c0,5.609,4.552,10.161,10.161,10.161h40.645c5.609,0,10.161-4.552,10.161-10.161V233.71
				c0-5.609-4.552-10.161-10.161-10.161h-40.645c-5.609,0-10.161,4.552-10.161,10.161V274.355z M447.097,243.871h20.323v20.323
				h-20.323V243.871z"/>
			<path d="M508.065,274.355c0,5.609,4.552,10.161,10.161,10.161h40.645c5.609,0,10.161-4.552,10.161-10.161V233.71
				c0-5.609-4.552-10.161-10.161-10.161h-40.645c-5.609,0-10.161,4.552-10.161,10.161V274.355z M528.387,243.871h20.323v20.323
				h-20.323V243.871z"/>
			<path d="M264.194,274.355c0,5.609,4.552,10.161,10.161,10.161H315c5.609,0,10.161-4.552,10.161-10.161V233.71
				c0-5.609-4.552-10.161-10.161-10.161h-40.645c-5.609,0-10.161,4.552-10.161,10.161V274.355z M284.516,243.871h20.323v20.323
				h-20.323V243.871z"/>
			<path d="M233.71,284.516c5.609,0,10.161-4.552,10.161-10.161V233.71c0-5.609-4.552-10.161-10.161-10.161h-40.645
				c-5.609,0-10.161,4.552-10.161,10.161v40.645c0,5.609,4.552,10.161,10.161,10.161H233.71z M203.226,243.871h20.323v20.323
				h-20.323V243.871z"/>
			<path d="M426.774,355.645c0,5.609,4.552,10.161,10.161,10.161h40.645c5.609,0,10.161-4.552,10.161-10.161V315
				c0-5.609-4.552-10.161-10.161-10.161h-40.645c-5.609,0-10.161,4.552-10.161,10.161V355.645z M447.097,325.161h20.323v20.323
				h-20.323V325.161z"/>
			<path d="M396.29,304.839H10.161C4.552,304.839,0,309.391,0,315v284.516c0,5.609,4.552,10.161,10.161,10.161H396.29
				c5.609,0,10.161-4.552,10.161-10.161V315C406.452,309.391,401.899,304.839,396.29,304.839z M233.71,457.187v-81.148
				c22.406,16.756,26.988,48.51,10.232,70.916C241.036,450.836,237.591,454.281,233.71,457.187z M274.355,416.613
				c-0.061-19.164-7.855-37.485-21.623-50.806h74.177c3.079,8.668,9.907,15.496,18.575,18.585v64.443
				c-8.678,3.089-15.496,9.907-18.585,18.585h-74.177C266.49,454.098,274.294,435.777,274.355,416.613z M233.71,528.387h152.419
				v20.323H233.71V528.387z M233.71,487.742h101.613c5.609,0,10.161-4.552,10.161-10.161c0-5.609,4.552-10.161,10.161-10.161
				c5.609,0,10.161-4.552,10.161-10.161v-81.29c0-5.609-4.552-10.161-10.161-10.161c-5.609,0-10.161-4.552-10.161-10.161
				c0-5.609-4.552-10.161-10.161-10.161H233.71v-20.323h152.419v182.903H233.71V487.742z M213.387,325.161v182.903h-20.323V325.161
				H213.387z M172.742,548.71H20.323v-20.323h152.419V548.71z M172.742,376.039v81.148c-22.406-16.756-26.988-48.51-10.232-70.916
				C165.416,382.39,168.86,378.945,172.742,376.039z M132.097,416.613c0.061,19.164,7.855,37.485,21.623,50.806H79.543
				c-3.079-8.668-9.907-15.496-18.575-18.585v-64.443c8.678-3.089,15.496-9.907,18.585-18.585h74.177
				C139.962,379.128,132.158,397.449,132.097,416.613z M20.323,325.161h152.419v20.323H71.129c-5.609,0-10.161,4.552-10.161,10.161
				c0,5.609-4.552,10.161-10.161,10.161s-10.161,4.552-10.161,10.161v81.29c0,5.609,4.552,10.161,10.161,10.161
				s10.161,4.552,10.161,10.161c0,5.609,4.552,10.161,10.161,10.161h101.613v20.323H20.323V325.161z M20.323,569.032h152.419v20.323
				H20.323V569.032z M193.065,589.355v-60.968h20.323v60.968H193.065z M233.71,589.355v-20.323h152.419v20.323H233.71z"/>
			<rect x="294.677" y="406.452" width="20.323" height="20.323"/>
			<rect x="91.452" y="406.452" width="20.323" height="20.323"/>
			<rect x="101.613" y="142.258" width="20.323" height="20.323"/>
			<rect x="60.968" y="142.258" width="20.323" height="20.323"/>
			<rect x="20.323" y="142.258" width="20.323" height="20.323"/>
			<rect x="20.323" y="182.903" width="20.323" height="20.323"/>
			<rect x="20.323" y="223.548" width="20.323" height="20.323"/>
			<rect x="20.323" y="264.194" width="20.323" height="20.323"/>
			<rect x="467.419" y="558.871" width="20.323" height="20.323"/>
			<rect x="426.774" y="558.871" width="20.323" height="20.323"/>
			<rect x="508.065" y="558.871" width="20.323" height="20.323"/>
			<rect x="548.71" y="558.871" width="20.323" height="20.323"/>
			<rect x="548.71" y="518.226" width="20.323" height="20.323"/>
			<rect x="548.71" y="477.581" width="20.323" height="20.323"/>
		</g>
	</g>
</g>
<g>
</g>
<g>
</g>
<g>
</g>
<g>
</g>
<g>
</g>
<g>
</g>
<g>
</g>
<g>
</g>
<g>
</g>
<g>
</g>
<g>
</g>
<g>
</g>
<g>
</g>
<g>
</g>
<g>
</g>
</svg>
