<?xml version="1.0" encoding="iso-8859-1"?>
<!-- Generator: Adobe Illustrator 19.0.0, SVG Export Plug-In . SVG Version: 6.00 Build 0)  -->
<svg xmlns="http://www.w3.org/2000/svg" xmlns:xlink="http://www.w3.org/1999/xlink" version="1.1" id="Layer_1" x="0px" y="0px" viewBox="0 0 512 512" style="enable-background:new 0 0 512 512;" xml:space="preserve" width="512px" height="512px">
<g>
	<g>
		<g>
			<path d="M415.304,179.803c-6.147,0-11.13,4.984-11.13,11.13v31.908c0,6.146,4.983,11.13,11.13,11.13     c6.147,0,11.13-4.984,11.13-11.13v-31.908C426.435,184.786,421.452,179.803,415.304,179.803z" fill="#006DF0"/>
			<path d="M426.429,261.564c0-2.927-1.18-5.799-3.25-7.869c-2.081-2.07-4.942-3.261-7.869-3.261c-2.938,0-5.799,1.19-7.88,3.261     c-2.07,2.07-3.25,4.942-3.25,7.869c0,0.052,0.007,0.105,0.008,0.157c-0.002,0.089-0.013,0.175-0.013,0.263v1.113     c0,6.146,4.983,11.13,11.13,11.13s11.13-4.984,11.13-11.13v-1.113c0-0.09-0.011-0.178-0.013-0.268     C426.421,261.664,426.429,261.614,426.429,261.564z" fill="#006DF0"/>
			<path d="M482.087,341.943V161.322c0-15.433-12.555-27.989-27.989-27.989H376.51c-15.433,0-27.989,12.555-27.989,27.989v177.924     h-37.983V118.864h30.609c6.147,0,11.13-4.984,11.13-11.13V82.69h21.704v6.586c0,6.146,4.983,11.13,11.13,11.13     s11.13-4.984,11.13-11.13V53.843c0-6.146-4.983-11.13-11.13-11.13s-11.13,4.984-11.13,11.13v6.586h-21.704V35.385     c0-6.146-4.983-11.13-11.13-11.13H29.496c-6.147,0-11.13,4.984-11.13,11.13v72.348c0,6.146,4.983,11.13,11.13,11.13h30.609     v220.383H45.31c-24.983,0-45.31,20.325-45.31,45.31v92.059c0,6.146,4.983,11.13,11.13,11.13h86.261     c6.147,0,11.13-4.984,11.13-11.13v-33.391h294.957v33.391c0,6.146,4.983,11.13,11.13,11.13h86.261     c6.147,0,11.13-4.984,11.13-11.13v-92.059C512,364.975,499.514,348.26,482.087,341.943z M370.783,161.322     c0-3.159,2.57-5.728,5.728-5.728h77.588c3.158,0,5.728,2.57,5.728,5.728v177.924h-89.044V161.322z M40.626,96.603V46.516h289.391     v50.087H40.626z M288.278,119.142v220.104h-22.261V119.142H288.278z M243.757,118.864v220.383h-116.87V118.864H243.757z      M104.626,119.142v220.104H82.365V119.142H104.626z M425.739,465.483v-33.391c0-6.146-4.983-11.13-11.13-11.13H97.391     c-6.147,0-11.13,4.984-11.13,11.13v33.391h-64v-80.927c0-12.709,10.34-23.049,23.049-23.049h421.379     c12.709,0,23.049,10.34,23.049,23.049v80.927H425.739z" fill="#006DF0"/>
		</g>
	</g>
</g>
<g>
</g>
<g>
</g>
<g>
</g>
<g>
</g>
<g>
</g>
<g>
</g>
<g>
</g>
<g>
</g>
<g>
</g>
<g>
</g>
<g>
</g>
<g>
</g>
<g>
</g>
<g>
</g>
<g>
</g>
</svg>
