<svg xmlns="http://www.w3.org/2000/svg" height="875pt" version="1.1" viewBox="0 0 875.00074 875" width="875pt">
<g id="surface1">
<path d="M 681.03125 718.75 L 578.125 718.75 C 569.492188 718.75 562.5 711.753906 562.5 703.125 C 562.5 694.492188 555.503906 687.5 546.875 687.5 C 538.242188 687.5 531.25 680.503906 531.25 671.875 L 531.25 265.625 C 531.25 256.992188 538.242188 250 546.875 250 C 555.503906 250 562.5 243.003906 562.5 234.375 C 562.5 225.742188 569.492188 218.75 578.125 218.75 L 703.125 218.75 C 711.753906 218.75 718.75 225.742188 718.75 234.375 C 718.75 243.003906 725.742188 250 734.375 250 C 743.003906 250 750 256.992188 750 265.625 L 750 618.53125 L 781.25 649.78125 L 781.25 187.5 L 500 187.5 L 500 750 L 712.265625 750 Z M 681.03125 718.75 " style=" stroke:none;fill-rule:nonzero;fill:rgb(0%,0%,0%);fill-opacity:1;" />
<path d="M 718.75 468.75 C 718.75 434.234375 683.769531 406.25 640.625 406.25 C 597.480469 406.25 562.5 434.234375 562.5 468.75 C 562.5 503.265625 597.480469 531.25 640.625 531.25 C 683.769531 531.25 718.75 503.265625 718.75 468.75 Z M 718.75 468.75 " style=" stroke:none;fill-rule:nonzero;fill:rgb(0%,0%,0%);fill-opacity:1;" />
<path d="M 718.75 278.585938 C 705.414062 273.832031 694.917969 263.335938 690.171875 250 L 591.085938 250 C 586.332031 263.335938 575.835938 273.832031 562.5 278.585938 L 562.5 403.265625 C 607.765625 365.578125 673.488281 365.578125 718.75 403.265625 Z M 656.25 328.125 L 625 328.125 L 625 296.875 L 656.25 296.875 Z M 656.25 328.125 " style=" stroke:none;fill-rule:nonzero;fill:rgb(0%,0%,0%);fill-opacity:1;" />
<path d="M 718.75 589.800781 L 718.75 534.234375 C 673.488281 571.925781 607.765625 571.925781 562.5 534.234375 L 562.5 658.921875 C 575.835938 663.667969 586.332031 674.164062 591.085938 687.5 L 649.78125 687.5 L 645.199219 682.921875 C 623.75 661.503906 621.738281 627.414062 640.527344 603.625 C 659.320312 579.835938 692.949219 573.886719 718.75 589.800781 Z M 718.75 589.800781 " style=" stroke:none;fill-rule:nonzero;fill:rgb(0%,0%,0%);fill-opacity:1;" />
<path d="M 500 875 L 704.316406 875 C 705.46875 864.410156 707.597656 853.949219 710.65625 843.75 L 500 843.75 Z M 500 875 " style=" stroke:none;fill-rule:nonzero;fill:rgb(0%,0%,0%);fill-opacity:1;" />
<path d="M 743.515625 781.25 L 500 781.25 L 500 812.5 L 723.4375 812.5 C 729.175781 801.542969 736.046875 791.234375 743.949219 781.734375 Z M 743.515625 781.25 " style=" stroke:none;fill-rule:nonzero;fill:rgb(0%,0%,0%);fill-opacity:1;" />
<path d="M 842.972656 630.683594 L 812.5 600.21875 L 812.5 681.03125 L 839.171875 707.699219 L 817.074219 729.796875 L 707.699219 620.421875 C 696.480469 609.671875 678.714844 609.863281 667.726562 620.851562 C 656.738281 631.839844 656.546875 649.605469 667.296875 660.824219 L 776.671875 770.199219 C 782.769531 776.304688 782.769531 786.191406 776.671875 792.296875 C 754.308594 814.605469 739.945312 843.683594 735.835938 875 L 875 875 L 875 708.011719 C 875.078125 679.003906 863.546875 651.152344 842.972656 630.683594 Z M 842.972656 630.683594 " style=" stroke:none;fill-rule:nonzero;fill:rgb(0%,0%,0%);fill-opacity:1;" />
<path d="M 93.75 656.25 L 375 656.25 L 375 687.5 L 93.75 687.5 Z M 93.75 656.25 " style=" stroke:none;fill-rule:nonzero;fill:rgb(0%,0%,0%);fill-opacity:1;" />
<path d="M 312.5 153.585938 C 299.164062 148.832031 288.667969 138.335938 283.925781 125 L 184.804688 125 C 182.972656 130.113281 180.273438 134.875 176.828125 139.0625 L 218.75 181.03125 L 218.75 171.875 L 250 171.875 L 250 203.125 L 238.332031 203.125 C 246.988281 217.308594 249.347656 234.457031 244.828125 250.449219 C 269.777344 252.265625 293.488281 262.011719 312.5 278.265625 Z M 312.5 153.585938 " style=" stroke:none;fill-rule:nonzero;fill:rgb(0%,0%,0%);fill-opacity:1;" />
<path d="M 131 93.265625 L 154.4375 116.703125 C 155.636719 114.449219 156.253906 111.933594 156.25 109.375 C 156.25 100.742188 163.246094 93.75 171.875 93.75 L 296.875 93.75 C 305.507812 93.75 312.5 100.742188 312.5 109.375 C 312.5 118.003906 319.496094 125 328.125 125 C 336.757812 125 343.75 131.992188 343.75 140.625 L 343.75 546.875 C 343.75 555.503906 336.757812 562.5 328.125 562.5 C 319.496094 562.5 312.5 569.492188 312.5 578.125 C 312.5 586.753906 305.507812 593.75 296.875 593.75 L 171.875 593.75 C 163.246094 593.75 156.25 586.753906 156.25 578.125 C 156.25 569.492188 149.257812 562.5 140.625 562.5 C 131.996094 562.5 125 555.503906 125 546.875 L 125 256.46875 L 93.75 225.21875 L 93.75 625 L 375 625 L 375 62.5 L 151.566406 62.5 C 145.816406 73.457031 138.921875 83.765625 131 93.265625 Z M 131 93.265625 " style=" stroke:none;fill-rule:nonzero;fill:rgb(0%,0%,0%);fill-opacity:1;" />
<path d="M 93.75 718.75 L 375 718.75 L 375 750 L 93.75 750 Z M 93.75 718.75 " style=" stroke:none;fill-rule:nonzero;fill:rgb(0%,0%,0%);fill-opacity:1;" />
<path d="M 156.25 409.234375 L 156.25 533.921875 C 169.585938 538.667969 180.082031 549.164062 184.835938 562.5 L 283.925781 562.5 C 288.667969 549.164062 299.164062 538.667969 312.5 533.921875 L 312.5 409.234375 C 267.238281 446.925781 201.515625 446.925781 156.25 409.234375 Z M 250 515.625 L 218.75 515.625 L 218.75 484.375 L 250 484.375 Z M 250 515.625 " style=" stroke:none;fill-rule:nonzero;fill:rgb(0%,0%,0%);fill-opacity:1;" />
<path d="M 234.375 281.25 C 230.65625 281.285156 226.949219 281.546875 223.257812 282.011719 C 212.960938 289.824219 200.414062 294.085938 187.5 294.160156 L 187.230469 294.160156 C 168.886719 304.0625 157.105469 322.910156 156.25 343.75 C 156.25 378.222656 191.304688 406.25 234.375 406.25 C 277.457031 406.25 312.5 378.222656 312.5 343.75 C 312.5 309.28125 277.457031 281.25 234.375 281.25 Z M 234.375 281.25 " style=" stroke:none;fill-rule:nonzero;fill:rgb(0%,0%,0%);fill-opacity:1;" />
<path d="M 57.925781 145.199219 L 167.300781 254.574219 C 178.519531 265.328125 196.285156 265.136719 207.277344 254.152344 C 218.261719 243.160156 218.453125 225.394531 207.707031 214.171875 L 98.332031 104.796875 C 92.230469 98.691406 92.230469 88.804688 98.332031 82.699219 C 120.699219 60.394531 135.058594 31.320312 139.179688 0 L 0 0 L 0 166.988281 C -0.0742188 196 11.464844 223.847656 32.03125 244.316406 L 62.5 274.78125 L 62.5 193.96875 L 35.832031 167.296875 Z M 57.925781 145.199219 " style=" stroke:none;fill-rule:nonzero;fill:rgb(0%,0%,0%);fill-opacity:1;" />
</g>
</svg>