<svg xmlns="http://www.w3.org/2000/svg" height="936pt" version="1.1" viewBox="0 0 936.25111 936" width="936pt">
<g id="surface1">
<path d="M 655.375 327.8125 L 686.582031 327.8125 L 686.582031 359.019531 L 655.375 359.019531 Z M 655.375 327.8125 " style=" stroke:none;fill-rule:nonzero;fill:rgb(0%,0%,0%);fill-opacity:1;" />
<path d="M 842.625 586.621094 L 842.625 202.980469 C 842.625 194.359375 835.636719 187.375 827.019531 187.375 L 514.9375 187.375 C 506.316406 187.375 499.332031 194.359375 499.332031 202.980469 L 499.332031 920.769531 C 499.332031 929.386719 506.316406 936.375 514.9375 936.375 L 764.605469 936.375 L 764.605469 924.550781 C 764.503906 886.277344 779.707031 849.5625 806.84375 822.574219 C 812.933594 816.476562 812.933594 806.601562 806.84375 800.507812 L 697.613281 691.277344 C 686.882812 680.070312 687.070312 662.332031 698.042969 651.355469 C 709.019531 640.382812 726.757812 640.195312 737.964844 650.925781 L 847.195312 760.15625 L 869.261719 738.089844 L 842.625 711.457031 L 842.625 630.753906 L 873.058594 661.175781 C 893.601562 681.617188 905.121094 709.433594 905.042969 738.402344 L 905.042969 936.375 L 936.25 936.375 L 936.25 738.402344 C 936.359375 701.144531 921.546875 665.394531 895.113281 639.121094 Z M 530.542969 905.167969 L 530.542969 873.957031 L 740.914062 873.957031 C 737.863281 884.144531 735.738281 894.589844 734.585938 905.167969 Z M 753.683594 842.75 L 530.542969 842.75 L 530.542969 811.542969 L 773.734375 811.542969 L 774.222656 812.023438 C 766.304688 821.507812 759.417969 831.808594 753.683594 842.75 Z M 675.511719 628.859375 C 652.207031 652.210938 652.207031 690 675.511719 713.34375 L 680.078125 717.917969 L 621.503906 717.917969 C 616.761719 704.601562 606.277344 694.117188 592.957031 689.375 L 592.957031 564.855469 C 638.164062 602.496094 703.796875 602.496094 749 564.855469 L 749 620.347656 C 725.492188 605.878906 695.121094 609.394531 675.546875 628.859375 Z M 749 434.0625 C 703.796875 396.421875 638.164062 396.421875 592.957031 434.0625 L 592.957031 309.546875 C 606.277344 304.800781 616.761719 294.316406 621.503906 281 L 720.460938 281 C 725.199219 294.316406 735.683594 304.800781 749 309.546875 Z M 749 499.457031 C 749 533.886719 714 561.875 670.980469 561.875 C 627.964844 561.875 592.957031 533.886719 592.957031 499.457031 C 592.957031 465.035156 627.964844 437.042969 670.980469 437.042969 C 714 437.042969 749 465.035156 749 499.457031 Z M 780.207031 649.039062 L 780.207031 296.605469 C 780.207031 287.984375 773.222656 281 764.605469 281 C 755.984375 281 749 274.011719 749 265.394531 C 749 256.773438 742.011719 249.792969 733.394531 249.792969 L 608.5625 249.792969 C 599.941406 249.792969 592.957031 256.773438 592.957031 265.394531 C 592.957031 274.011719 585.972656 281 577.355469 281 C 568.734375 281 561.75 287.984375 561.75 296.605469 L 561.75 702.3125 C 561.75 710.929688 568.734375 717.917969 577.355469 717.917969 C 585.972656 717.917969 592.957031 724.898438 592.957031 733.519531 C 592.957031 742.136719 599.941406 749.125 608.5625 749.125 L 711.332031 749.125 L 742.539062 780.332031 L 530.542969 780.332031 L 530.542969 218.582031 L 811.417969 218.582031 L 811.417969 680.246094 Z M 780.207031 649.039062 " style=" stroke:none;fill-rule:nonzero;fill:rgb(0%,0%,0%);fill-opacity:1;" />
<path d="M 249.667969 515.0625 L 280.875 515.0625 L 280.875 546.269531 L 249.667969 546.269531 Z M 249.667969 515.0625 " style=" stroke:none;fill-rule:nonzero;fill:rgb(0%,0%,0%);fill-opacity:1;" />
<path d="M 93.625 349.878906 L 93.625 795.9375 C 93.625 804.554688 100.613281 811.542969 109.230469 811.542969 L 421.3125 811.542969 C 429.933594 811.542969 436.917969 804.554688 436.917969 795.9375 L 436.917969 78.144531 C 436.917969 69.523438 429.933594 62.542969 421.3125 62.542969 L 195.335938 62.542969 C 200.289062 46.136719 202.824219 29.09375 202.855469 11.949219 L 202.855469 0.125 L 171.644531 0.125 L 171.644531 11.949219 C 171.757812 50.226562 156.550781 86.941406 129.40625 113.921875 C 123.316406 120.019531 123.316406 129.894531 129.40625 135.988281 L 238.636719 245.21875 C 249.371094 256.429688 249.179688 274.167969 238.207031 285.144531 C 227.230469 296.117188 209.492188 296.308594 198.285156 285.570312 L 89.054688 176.339844 L 66.992188 198.40625 L 93.625 225.046875 L 93.625 305.746094 L 63.199219 275.324219 C 42.660156 254.882812 31.136719 227.074219 31.207031 198.097656 L 31.207031 0.125 L 0 0.125 L 0 198.097656 C -0.101562 235.363281 14.707031 271.113281 41.136719 297.386719 Z M 124.832031 686.707031 L 405.707031 686.707031 L 405.707031 717.917969 L 124.832031 717.917969 Z M 124.832031 780.332031 L 124.832031 749.125 L 405.707031 749.125 L 405.707031 780.332031 Z M 207.800781 170.210938 C 211.242188 166.027344 213.9375 161.273438 215.765625 156.167969 L 314.757812 156.167969 C 319.492188 169.484375 329.976562 179.96875 343.292969 184.714844 L 343.292969 309.230469 C 324.304688 292.996094 300.625 283.261719 275.710938 281.449219 C 280.222656 265.480469 277.867188 248.355469 269.222656 234.1875 L 280.875 234.1875 L 280.875 202.980469 L 249.667969 202.980469 L 249.667969 212.121094 Z M 187.25 440.023438 C 232.453125 477.660156 298.089844 477.660156 343.292969 440.023438 L 343.292969 564.542969 C 329.976562 569.28125 319.492188 579.765625 314.757812 593.082031 L 215.796875 593.082031 C 211.050781 579.765625 200.566406 569.28125 187.25 564.542969 Z M 254.167969 312.96875 C 257.855469 312.507812 261.554688 312.242188 265.269531 312.207031 C 308.296875 312.207031 343.292969 340.203125 343.292969 374.625 C 343.292969 409.050781 308.296875 437.042969 265.269531 437.042969 C 222.257812 437.042969 187.25 409.050781 187.25 374.625 C 188.105469 353.808594 199.859375 334.980469 218.191406 325.085938 L 218.457031 325.085938 C 231.355469 325.015625 243.882812 320.765625 254.167969 312.96875 Z M 156.042969 287.460938 L 156.042969 577.480469 C 156.042969 586.097656 163.03125 593.082031 171.644531 593.082031 C 180.269531 593.082031 187.25 600.066406 187.25 608.6875 C 187.25 617.304688 194.238281 624.292969 202.855469 624.292969 L 327.6875 624.292969 C 336.308594 624.292969 343.292969 617.304688 343.292969 608.6875 C 343.292969 600.066406 350.28125 593.082031 358.894531 593.082031 C 367.519531 593.082031 374.5 586.097656 374.5 577.480469 L 374.5 171.769531 C 374.5 163.148438 367.519531 156.167969 358.894531 156.167969 C 350.28125 156.167969 343.292969 149.179688 343.292969 140.5625 C 343.292969 131.941406 336.308594 124.957031 327.6875 124.957031 L 202.855469 124.957031 C 194.238281 124.957031 187.25 131.941406 187.25 140.5625 C 187.226562 143.097656 186.582031 145.589844 185.378906 147.8125 L 161.972656 124.40625 C 169.90625 114.949219 176.804688 104.667969 182.574219 93.75 L 405.707031 93.75 L 405.707031 655.5 L 124.832031 655.5 L 124.832031 256.253906 Z M 156.042969 287.460938 " style=" stroke:none;fill-rule:nonzero;fill:rgb(0%,0%,0%);fill-opacity:1;" />
</g>
</svg>