<svg height="464pt" viewBox="0 0 464 464" width="464pt" xmlns="http://www.w3.org/2000/svg"><path d="m42.34375 389.65625 11.3125-11.3125 17.847656 17.847656 37.398438-44.191406h-76.902344v80h96v-77.792969l-55.503906 65.601563zm0 0"/><path d="m158.59375 161.054688-28.265625-8.070313-26.328125 26.328125-26.328125-26.328125-28.265625 8.070313c-10.246094 2.9375-17.40625 12.425781-17.40625 23.082031v7.863281h144v-7.863281c0-10.65625-7.160156-20.144531-17.40625-23.082031zm0 0"/><path d="m176 408v-160c0-13.230469 10.769531-24 24-24h168v-160h-16v64h-176v-112h128v-16h-304v464h368v-32h-168c-13.230469 0-24-10.769531-24-24zm32-248h144v16h-144zm0 32h144v16h-144zm-192-7.863281c0-17.769531 11.929688-33.585938 29.015625-38.464844l26.984375-7.703125v-4.082031c-14.488281-10.125-24-26.910157-24-45.886719v-16c0-30.878906 25.128906-56 56-56s56 25.121094 56 56v16c0 18.984375-9.511719 35.761719-24 45.886719v4.082031l26.984375 7.710938c17.085937 4.871093 29.015625 20.6875 29.015625 38.457031v23.863281h-176zm0 39.863281h144v16h-144zm0 32h144v16h-144zm0 32h96v16h-96zm128 48v112h-128v-112h106.441406l31.445313-37.167969 12.21875 10.335938-22.699219 26.832031zm0 0"/><path d="m192 32v80h144v-48h-32v-32zm0 0"/><path d="m223.992188 272 .007812 48h112v-48zm0 0"/><path d="m320 0v48h48zm0 0"/><path d="m104 128c22.054688 0 40-17.945312 40-40v-16c0-22.054688-17.945312-40-40-40s-40 17.945312-40 40v16c0 22.054688 17.945312 40 40 40zm0 0"/><path d="m89.289062 141.976562 14.710938 14.710938 14.710938-14.710938c-4.695313 1.28125-9.613282 2.023438-14.710938 2.023438s-10.015625-.742188-14.710938-2.023438zm0 0"/><path d="m384 352c-8.824219 0-16 7.175781-16 16s7.175781 16 16 16c1.398438 0 2.769531-.257812 4.113281-.632812-2.546875-4.574219-4.113281-9.765626-4.113281-15.367188s1.566406-10.792969 4.113281-15.367188c-1.34375-.375-2.714843-.632812-4.113281-.632812zm0 0"/><path d="m416 352c-1.015625 0-2.007812.121094-2.976562.304688-.792969.160156-1.574219.398437-2.335938.679687-.128906.046875-.253906.070313-.382812.121094-1.785157.703125-3.464844 1.742187-4.953126 3.070312l-.894531.808594c-2.746093 2.871094-4.457031 6.734375-4.457031 11.015625 0 4.265625 1.703125 8.121094 4.425781 10.984375l.933594.839844c1.480469 1.335937 3.160156 2.367187 4.945313 3.078125.121093.050781.246093.074218.367187.113281.769531.28125 1.550781.519531 2.351563.679687.96875.183594 1.960937.304688 2.976562.304688 8.824219 0 16-7.175781 16-16s-7.175781-16-16-16zm0 0"/><path d="m456 240h-256c-4.414062 0-8 3.59375-8 8v160c0 4.40625 3.585938 8 8 8h256c4.414062 0 8-3.59375 8-8v-160c0-4.40625-3.585938-8-8-8zm-248 112h32v16h-32zm128 48h-128v-16h128zm-80-32v-16h32v16zm80 0h-32v-16h32zm0-32h-112c-8.824219 0-16-7.175781-16-16v-48c0-8.824219 7.175781-16 16-16h112c8.824219 0 16 7.175781 16 16v48c0 8.824219-7.175781 16-16 16zm80 64c-1.886719 0-3.742188-.230469-5.585938-.566406-.566406-.105469-1.117187-.210938-1.671874-.34375-1.4375-.347656-2.847657-.777344-4.222657-1.3125-.847656-.328125-1.65625-.722656-2.472656-1.121094-.679687-.335938-1.382813-.640625-2.046875-1.023438-4.847656 2.847657-10.359375 4.367188-16 4.367188-17.648438 0-32-14.351562-32-32s14.351562-32 32-32c5.640625 0 11.152344 1.519531 16 4.359375.664062-.382813 1.359375-.6875 2.046875-1.023437.816406-.398438 1.625-.792969 2.472656-1.121094 1.375-.535156 2.785157-.96875 4.222657-1.3125.554687-.125 1.113281-.238282 1.671874-.34375 1.84375-.328125 3.699219-.558594 5.585938-.558594 17.648438 0 32 14.351562 32 32s-14.351562 32-32 32zm32-96h-80v-16h80zm0-32h-80v-16h80zm0 0"/></svg>