<svg height="1028pt" viewBox="0 0 1028.002 1028" width="1028pt" xmlns="http://www.w3.org/2000/svg"><path d="m205.597656 119.933594h616.800782c18.925781 0 34.265624 15.34375 34.265624 34.265625v719.601562c0 18.921875-15.339843 34.265625-34.265624 34.265625h-616.800782c-18.921875 0-34.265625-15.34375-34.265625-34.265625v-719.601562c0-18.921875 15.34375-34.265625 34.265625-34.265625zm0 0" fill="#e6e7e8"/><path d="m171.332031 942.332031c0 37.851563 30.683594 68.53125 68.535157 68.53125h548.265624c37.847657 0 68.53125-30.679687 68.53125-68.53125v-34.265625h-685.332031zm376.933594 17.132813" fill="#414042"/><path d="m788.132812 17.132812h-548.265624c-37.851563 0-68.535157 30.683594-68.535157 68.535157v34.265625h685.332031v-34.265625c0-37.851563-30.683593-68.535157-68.53125-68.535157zm0 0" fill="#414042"/><g fill="#33dfe5"><path d="m771 479.734375v342.664063h119.929688v-342.664063zm0 0"/><path d="m651.066406 479.734375h119.933594v342.664063h-119.933594zm0 0"/><path d="m633.933594 479.734375h-102.800782l68.53125 342.664063h51.402344v-342.664063zm0 0"/><path d="m890.929688 479.734375v342.664063h51.402343l68.53125-342.664063zm0 0"/></g><path d="m171.332031 702.464844c85.164063 0 154.199219-69.035156 154.199219-154.199219 0-85.160156-69.035156-154.199219-154.199219-154.199219-85.160156 0-154.199219 69.039063-154.199219 154.199219 0 85.164063 69.039063 154.199219 154.199219 154.199219zm0-154.199219c-18.925781 0-34.265625-15.339844-34.265625-34.265625s15.339844-34.265625 34.265625-34.265625 34.265625 15.339844 34.265625 34.265625c0-18.925781-15.339844-34.265625-34.265625-34.265625s-34.265625 15.339844-34.265625 34.265625 15.339844 34.265625 34.265625 34.265625 34.265625 15.34375 34.265625 34.269531c0 18.921875-15.339844 34.265625-34.265625 34.265625s-34.265625-15.34375-34.265625-34.265625c0 18.921875 15.339844 34.265625 34.265625 34.265625s34.265625-15.34375 34.265625-34.265625c0-18.925781-15.339844-34.269531-34.265625-34.269531zm0 0" fill="#ff9811"/><path d="m771 171.332031h34.265625v34.269531h-34.265625zm0 0"/><path d="m702.464844 171.332031h34.269531v34.269531h-34.269531zm0 0"/><path d="m633.933594 171.332031h34.265625v34.269531h-34.265625zm0 0"/><path d="m222.734375 171.332031h34.265625v34.269531h-34.265625zm0 0"/><path d="m548.265625 942.332031h-68.53125c-9.464844 0-17.132813 7.671875-17.132813 17.132813 0 9.460937 7.667969 17.132812 17.132813 17.132812h68.53125c9.460937 0 17.132813-7.671875 17.132813-17.132812 0-9.460938-7.671876-17.132813-17.132813-17.132813zm0 0"/><path d="m1024.109375 468.871094c-3.253906-3.96875-8.113281-6.269532-13.246094-6.269532h-92.894531l-44.171875-76.5v-300.433593c-.054687-47.289063-38.375-85.6093752-85.664063-85.667969h-548.265624c-47.289063.0585938-85.609376 38.378906-85.667969 85.667969v257h34.265625v-205.601563h651.066406v189.683594l-19.429688-33.648438c-4.675781-8.226562-15.132812-11.105468-23.359374-6.429687-8.226563 4.675781-11.105469 15.136719-6.429688 23.363281.039062.066406.078125.132813.117188.199219l87.960937 152.367187h-214.785156l87.964843-152.367187c4.675782-8.226563 1.796876-18.6875-6.429687-23.363281-8.148437-4.628906-18.503906-1.855469-23.246094 6.230468l-97.863281 169.5h-92.898438c-9.460937-.003906-17.136718 7.667969-17.136718 17.128907 0 1.152343.117187 2.300781.347656 3.429687l68.53125 342.667969c1.628906 7.976563 8.648438 13.707031 16.789062 13.707031h239.867188v51.398438h-651.066406v-137.066406h-34.265625v188.464843c.058593 47.289063 38.378906 85.609375 85.667969 85.667969h548.265624c47.289063-.058594 85.609376-38.378906 85.667969-85.667969v-102.796875h68.53125c8.144531 0 15.160157-5.730468 16.792969-13.707031l68.53125-342.667969c1.027344-5.054687-.273438-10.304687-3.546875-14.289062zm-835.644531-366.070313v-17.132812c0-28.386719 23.015625-51.398438 51.402344-51.398438h548.265624c28.386719 0 51.398438 23.011719 51.398438 51.398438v17.132812zm599.667968 890.929688h-548.265624c-28.386719 0-51.402344-23.011719-51.402344-51.398438v-17.132812h651.066406v17.132812c0 28.386719-23.011719 51.398438-51.398438 51.398438zm0-496.863281h85.664063v308.398437h-85.664063zm-34.265624 308.398437h-85.667969v-308.398437h85.667969zm-201.832032-308.398437h81.898438v308.398437h-20.21875zm376.246094 308.398437h-20.214844v-308.398437h81.894532zm0 0"/><path d="m342.667969 548.265625c0-94.625-76.710938-171.332031-171.335938-171.332031-94.621093 0-171.332031 76.707031-171.332031 171.332031s76.707031 171.332031 171.332031 171.332031c94.582031-.101562 171.230469-76.75 171.335938-171.332031zm-308.402344 0c0-75.699219 61.367187-137.066406 137.066406-137.066406 75.703125 0 137.066407 61.367187 137.066407 137.066406s-61.367188 137.066406-137.066407 137.066406c-75.664062-.085937-136.980469-61.402343-137.066406-137.066406zm0 0"/><path d="m188.464844 651.066406v-20.285156c26.714844-9.410156 40.742187-38.691406 31.332031-65.40625-7.238281-20.550781-26.675781-34.28125-48.464844-34.242188-9.460937 0-17.132812-7.671874-17.132812-17.132812s7.671875-17.132812 17.132812-17.132812c9.460938 0 17.132813 7.671874 17.132813 17.132812h34.269531c-.09375-21.703125-13.804687-41.011719-34.269531-48.246094v-20.285156h-34.265625v20.285156c-26.710938 9.40625-40.738281 38.691406-31.332031 65.402344 7.242187 20.550781 26.675781 34.285156 48.464843 34.246094 9.464844 0 17.132813 7.667968 17.132813 17.132812 0 9.460938-7.667969 17.132813-17.132813 17.132813-9.460937 0-17.132812-7.671875-17.132812-17.132813h-34.265625c.089844 21.703125 13.804687 41.011719 34.265625 48.246094v20.285156zm0 0"/><path d="m325.53125 308.402344h34.269531v34.265625h-34.269531zm0 0"/><path d="m376.933594 308.402344h137.066406v34.265625h-137.066406zm0 0"/><path d="m325.53125 359.800781h34.269531v34.265625h-34.269531zm0 0"/><path d="m376.933594 359.800781h137.066406v34.265625h-137.066406zm0 0"/></svg>